<?xml version="1.0" standalone="yes"?>
<svg xmlns="http://www.w3.org/2000/svg" width="253" height="269">
<path style="fill:#ffffff; stroke:none;" d="M0 0L0 269L253 269L253 0L0 0z"/>
<path style="fill:#010101; stroke:none;" d="M16 8L16 132L56 124.4L71.2724 120.411L77 105L91 65C103.606 109.751 111.724 157.163 119.414 203L125.586 240C126.15 243.363 125.905 250.682 128.742 252.972C131.779 255.423 139.32 254 143 254L180 254C180 241.017 180.696 228.004 181.015 215C181.114 210.951 180.82 202.65 183.603 199.51C190.208 192.061 210.654 189.782 220 186.667C223.454 185.515 229.754 184.649 231.972 181.49C234.108 178.449 233 172.542 233 169L196 180.859L172.289 188.934L159.6 204L133 239L132 239C122.985 202.405 119.649 163.96 111.789 127C104.184 91.2327 91.8991 53.429 89 17L119.611 54L133.039 68.5818L150 61.7809L194 41L172 120L233 168C233 159.244 235.438 146.236 232.397 138C229.374 129.816 218.655 125.831 213.702 118.91C206.771 109.226 203.294 92.4314 200.04 81C193.789 59.04 200 30.6062 200 8L145 8L145 9C165.492 15.9665 167.713 55.9198 142 55.9198C118.178 55.9198 112.49 17.3389 134 9L98 8L16 8z"/>
<path style="fill:#01a59f; stroke:none;" d="M134 8.55786C108.697 15.1987 120.562 62.3764 147 55.4421C172.887 48.6524 161.127 1.43857 134 8.55786M89 17L96.7894 57L111.997 129L125.75 202L132 239L133 239L160.4 204L173.171 188.934L233 169L210 149.2L172 120L194 41L150 61.3086L133.439 68.3349L121.25 55L89 17z"/>
<path style="fill:#016da5; stroke:none;" d="M90 65L77 104L70.5702 120.411L55 124.4L16 132C25.9674 142.487 39.5403 150.519 51 159.349C54.3734 161.948 62.3508 165.804 63.4738 170.174C64.7037 174.959 57.4053 183.886 55.2199 188C47.4903 202.552 32.9306 219.761 30 236C43.9266 231.547 58.0945 227.846 72 223.33C76.4277 221.893 84.3896 217.816 89 219.353C104.572 224.545 113.067 247.036 128 254L102.424 116L95.1998 82L90 65M45.0008 81.6528C26.0401 87.6213 36.1163 123.434 55.9961 116.747C75.0201 110.348 65.6182 75.1628 45.0008 81.6528z"/>
<path style="fill:#010101; stroke:none;" d="M16 133L16 254L126 254L100 227.961L89 218.788L71 223.33L30 236L55.7446 188L64.1836 171.09L53 160.116L16 133z"/>
</svg>
